<svg xmlns="http://www.w3.org/2000/svg" viewBox="0 0 190.65 145.27"><defs><style>.cls-1{fill:#0856f8;stroke-width:0px;}</style></defs><g><path class="cls-1" d="m190.65,41.34v12.54h-23.21c-3.53,0-6.82,1.05-9.58,2.85-6.2,4.05-7.51,12.64-3.12,18.6,3.82,5.2,8.82,12.42,10.33,16.62l-20.09-9.47-56.15-26.52-11.6-5.47-2.62-1.24L9.16,18.38,0,0l137.83,65.04c2.93-13.65,15.11-23.89,29.61-23.89h10.49c-.11-13.51-11.14-24.5-24.7-24.5h-86.4L39.88,3.93h113.36c20.66,0,37.41,16.75,37.41,37.41Z"></path><path class="cls-1" d="m132.33,39.7c7.39,0,13.38-5.99,13.38-13.37h-26.75c0,7.39,5.99,13.37,13.37,13.37Z"></path><path class="cls-1" d="m154.63,101.68l-64.99-30.53-3.64-1.71-9.14-4.32-58.08-27.39,9.14,18.38,49,23.12,3.66,1.73,9.06,4.25,65.41,30.73,11.92,5.6c.75-3.39,1.17-6.84,1.26-10.29.02-1.07.02-2.13-.02-3.19l-13.57-6.38Z"></path><path class="cls-1" d="m89.64,100.04l-3.64-1.72-9.08-4.28-39.37-18.57,9.13,18.38,30.23,14.26,3.65,1.72,9.07,4.28,54.14,25.56,11.88,5.6c2.69-3.4,4.97-7.04,6.81-10.85l-11.52-5.44-61.32-28.94Z"></path></g></svg>
