<svg xmlns="http://www.w3.org/2000/svg" id="Layer_1" data-name="Layer 1" viewBox="0 0 695.81 145.27"><defs><style>.cls-1{fill:#3B82F6;}.cls-1,.cls-2{stroke-width:0px;}.cls-2{fill:#FFFFFF;}</style></defs><g><path class="cls-1" d="m190.65,41.34v12.54h-23.21c-3.53,0-6.82,1.05-9.58,2.85-6.2,4.05-7.51,12.64-3.12,18.6,3.82,5.2,8.82,12.42,10.33,16.62l-20.09-9.47-56.15-26.52-11.6-5.47-2.62-1.24L9.16,18.38,0,0l137.83,65.04c2.93-13.65,15.11-23.89,29.61-23.89h10.49c-.11-13.51-11.14-24.5-24.7-24.5h-86.4L39.88,3.93h113.36c20.66,0,37.41,16.75,37.41,37.41Z"></path><path class="cls-1" d="m132.33,39.7c7.39,0,13.38-5.99,13.38-13.37h-26.75c0,7.39,5.99,13.37,13.37,13.37Z"></path><path class="cls-1" d="m154.63,101.68l-64.99-30.53-3.64-1.71-9.14-4.32-58.08-27.39,9.14,18.38,49,23.12,3.66,1.73,9.06,4.25,65.41,30.73,11.92,5.6c.75-3.39,1.17-6.84,1.26-10.29.02-1.07.02-2.13-.02-3.19l-13.57-6.38Z"></path><path class="cls-1" d="m89.64,100.04l-3.64-1.72-9.08-4.28-39.37-18.57,9.13,18.38,30.23,14.26,3.65,1.72,9.07,4.28,54.14,25.56,11.88,5.6c2.69-3.4,4.97-7.04,6.81-10.85l-11.52-5.44-61.32-28.94Z"></path></g><g><g><path class="cls-2" d="m236.02,67.14h-6.57v19.7h-11.05V31.57h23.55c10.65,0,18.74,7.77,18.74,18.1,0,7.93-5.05,14.26-12.42,16.58l13.78,20.59h-13.3l-12.74-19.7Zm-6.57-9.61h12.26c4.33,0,7.61-3.36,7.61-7.77s-3.28-7.77-7.61-7.77h-12.26v15.54Z"></path><path class="cls-2" d="m269.1,31.57h11.05v55.27h-11.05V31.57Z"></path><path class="cls-2" d="m287.61,79.15l5.69-8.41c4.49,4.25,11.05,7.21,17.3,7.21,5.53,0,10.17-2.56,10.17-6.41,0-4.65-6.25-6.09-11.93-7.45-10.57-2.48-19.22-7.53-19.22-17.22s8.57-16.26,20.99-16.26c8.25,0,15.06,2.88,19.14,6.89l-5.13,8.33c-3.12-3.04-8.65-5.37-14.18-5.37s-9.45,2.48-9.45,5.93c0,4.25,5.77,6.09,10.89,7.21,5.13,1.04,20.27,4.81,20.27,17.46,0,9.93-9.45,16.74-21.55,16.74-8.49,0-17.38-3.44-22.99-8.65Z"></path><path class="cls-2" d="m355.77,66.18l-5.13,5.61v15.06h-11.05V31.57h11.05v25.23l22.67-25.23h14.1l-24.43,26.67,25.47,28.6h-14.42l-18.26-20.67Z"></path><path class="cls-2" d="m446.37,76.43v10.41h-35.16V31.57h11.05v44.86h24.11Z"></path><path class="cls-2" d="m491.47,76.43v10.41h-37.57V31.57h37.17v10.41h-26.11v11.85h23.47v10.41h-23.47v12.18h26.51Z"></path><path class="cls-2" d="m554.19,55.76v3.84c0,16.26-11.85,28.2-28.04,28.2s-28.92-12.34-28.92-28.6,12.58-28.6,29.16-28.6c9.69,0,18.18,4.17,23.07,10.81l-8.33,6.65c-3.28-4.25-8.49-6.89-14.5-6.89-10.25,0-18.02,7.69-18.02,18.02s7.69,18.02,17.94,18.02c7.93,0,14.34-4.73,16.02-11.62h-14.98v-9.85h26.59Z"></path><path class="cls-2" d="m562.2,31.57h11.05v55.27h-11.05V31.57Z"></path><path class="cls-2" d="m581.67,59.21c0-16.26,12.58-28.6,29.16-28.6s29.16,12.34,29.16,28.6-12.58,28.6-29.16,28.6-29.16-12.34-29.16-28.6Zm46.94,0c0-10.25-7.69-17.94-17.78-17.94s-17.78,7.69-17.78,17.94,7.69,17.94,17.78,17.94,17.78-7.69,17.78-17.94Z"></path><path class="cls-2" d="m695.81,31.57v55.27h-11.21l-25.15-36.29v36.29h-11.05V31.57h11.21l25.15,36.28V31.57h11.05Z"></path></g><g><path class="cls-2" d="m232,114.3c-.2-.61-.41-1.24-.63-1.89-.23-.65-.45-1.29-.67-1.93h-6.88c-.22.64-.45,1.29-.67,1.93-.22.65-.43,1.27-.62,1.88h-4.12c.66-1.9,1.29-3.65,1.89-5.26.59-1.61,1.18-3.13,1.75-4.55.57-1.42,1.13-2.78,1.68-4.06s1.13-2.53,1.72-3.75h3.76c.58,1.22,1.15,2.47,1.71,3.75s1.13,2.63,1.7,4.06c.57,1.42,1.15,2.94,1.75,4.55.6,1.61,1.23,3.36,1.89,5.26h-4.25Zm-4.76-13.63c-.09.26-.22.6-.39,1.04-.17.44-.36.95-.58,1.53-.22.58-.46,1.21-.73,1.91-.27.69-.54,1.42-.82,2.18h5.04c-.27-.76-.53-1.49-.78-2.19-.25-.7-.49-1.33-.72-1.91-.23-.58-.43-1.09-.6-1.53-.17-.44-.31-.78-.42-1.03Z"></path><path class="cls-2" d="m266.09,114.3c-1.14-2.02-2.36-4.01-3.69-5.97-1.32-1.97-2.73-3.82-4.22-5.57v11.54h-3.92v-17.62h3.23c.56.56,1.18,1.25,1.86,2.06s1.37,1.68,2.07,2.61c.7.92,1.4,1.88,2.1,2.87s1.35,1.94,1.96,2.86v-10.4h3.94v17.62h-3.33Z"></path><path class="cls-2" d="m278.32,114.3v-17.62h11.9v3.33h-7.93v3.46h7.04v3.25h-7.04v4.25h8.52v3.33h-12.48Z"></path><path class="cls-2" d="m310.39,98.57c.2.69.43,1.48.67,2.35s.51,1.78.79,2.71c.28.93.56,1.86.85,2.8s.57,1.8.84,2.59c.22-.86.45-1.8.68-2.82.23-1.02.45-2.07.65-3.15.2-1.08.4-2.17.6-3.24s.38-2.11.55-3.11h4.12c-.6,2.95-1.28,5.94-2.06,8.97s-1.62,5.92-2.52,8.64h-3.63c-.59-1.63-1.17-3.33-1.73-5.12-.56-1.79-1.11-3.58-1.65-5.38-.54,1.8-1.09,3.59-1.63,5.38-.54,1.79-1.11,3.5-1.71,5.12h-3.63c-.9-2.73-1.74-5.61-2.51-8.64-.77-3.03-1.46-6.03-2.06-8.97h4.3c.17,1,.36,2.04.56,3.11s.42,2.16.64,3.24c.22,1.09.45,2.14.68,3.15s.46,1.96.7,2.82c.31-.83.6-1.71.89-2.64.29-.93.57-1.86.84-2.8.27-.93.52-1.83.75-2.69.23-.86.44-1.64.62-2.31h3.38Z"></path><path class="cls-2" d="m350.26,98.57c.2.69.43,1.48.67,2.35s.51,1.78.79,2.71c.28.93.56,1.86.85,2.8s.57,1.8.84,2.59c.22-.86.45-1.8.68-2.82.23-1.02.45-2.07.65-3.15.2-1.08.4-2.17.6-3.24s.38-2.11.55-3.11h4.12c-.6,2.95-1.28,5.94-2.06,8.97s-1.62,5.92-2.52,8.64h-3.63c-.59-1.63-1.17-3.33-1.73-5.12-.56-1.79-1.11-3.58-1.65-5.38-.54,1.8-1.09,3.59-1.63,5.38-.54,1.79-1.11,3.5-1.71,5.12h-3.63c-.9-2.73-1.74-5.61-2.51-8.64-.77-3.03-1.46-6.03-2.06-8.97h4.3c.17,1,.36,2.04.56,3.11s.42,2.16.64,3.24c.22,1.09.45,2.14.68,3.15s.46,1.96.7,2.82c.31-.83.6-1.71.89-2.64.29-.93.57-1.86.84-2.8.27-.93.52-1.83.75-2.69.23-.86.44-1.64.62-2.31h3.38Z"></path><path class="cls-2" d="m378.15,114.3c-.2-.61-.41-1.24-.63-1.89-.23-.65-.45-1.29-.67-1.93h-6.88c-.22.64-.45,1.29-.67,1.93-.22.65-.43,1.27-.62,1.88h-4.12c.66-1.9,1.29-3.65,1.89-5.26.59-1.61,1.18-3.13,1.75-4.55.57-1.42,1.13-2.78,1.68-4.06s1.13-2.53,1.72-3.75h3.76c.58,1.22,1.15,2.47,1.71,3.75s1.13,2.63,1.7,4.06c.57,1.42,1.15,2.94,1.75,4.55.6,1.61,1.23,3.36,1.89,5.26h-4.25Zm-4.76-13.63c-.09.26-.22.6-.39,1.04-.17.44-.36.95-.58,1.53-.22.58-.46,1.21-.73,1.91-.27.69-.54,1.42-.82,2.18h5.04c-.27-.76-.53-1.49-.78-2.19-.25-.7-.49-1.33-.72-1.91-.23-.58-.43-1.09-.6-1.53-.17-.44-.31-.78-.42-1.03Z"></path><path class="cls-2" d="m393.4,103.91c.71-1.2,1.39-2.4,2.04-3.6.64-1.2,1.24-2.41,1.78-3.63h4.37c-.97,1.9-1.97,3.74-3,5.52-1.03,1.78-2.13,3.57-3.28,5.36v6.74h-3.97v-6.69c-1.15-1.8-2.25-3.59-3.29-5.39-1.04-1.8-2.05-3.64-3.01-5.54h4.6c.54,1.22,1.13,2.43,1.75,3.63s1.3,2.4,2.01,3.6Z"></path></g></g></svg>
